<svg xmlns="http://www.w3.org/2000/svg" viewBox="0 0 579.25 149.56"><defs><style>.cls-1{fill:#f9c2c9;}.cls-2{fill:#1d1d1b;}</style></defs><title>Logo</title><g id="Layer_2" data-name="Layer 2"><g id="Livello_1" data-name="Livello 1"><path class="cls-1" d="M7.42,2.66A10.37,10.37,0,0,1,14.85,0a10.6,10.6,0,0,1,7.5,2.66,8.78,8.78,0,0,1,2.88,6.73A8.33,8.33,0,0,1,22.35,16a10.9,10.9,0,0,1-7.5,2.53A10.66,10.66,0,0,1,7.42,16a8.43,8.43,0,0,1-2.8-6.59A8.89,8.89,0,0,1,7.42,2.66ZM22.84,31.83v77.25h-16V31.83Z"/><path class="cls-2" d="M116.92,18a40.84,40.84,0,0,1,15.56,23.69H115.66a26.92,26.92,0,0,0-10.59-12.76,31.49,31.49,0,0,0-17.46-4.77A32,32,0,0,0,71,28.46,30,30,0,0,0,59.5,40.8a40.45,40.45,0,0,0-4.13,18.79q0,11.35,4.2,19.48A29.3,29.3,0,0,0,71.42,91.48a35.75,35.75,0,0,0,17.74,4.28,31.31,31.31,0,0,0,21.17-7.64q8.83-7.65,10.65-21H84.67V55.38h49.77V70.66a47.29,47.29,0,0,1-7.78,19.84,44.45,44.45,0,0,1-16.12,14.23,48.16,48.16,0,0,1-22.93,5.33q-14.43,0-25.51-6.45A44,44,0,0,1,45,85.73q-6-11.42-6-26.14t6-26.15A43.78,43.78,0,0,1,62,15.63Q73,9.26,87.47,9.25,105.14,9.25,116.92,18Z"/><path class="cls-2" d="M199.49,36A27.93,27.93,0,0,1,210,49.77V31.83h16v77.25H210v-18a27.93,27.93,0,0,1-10.52,13.74q-7.43,5.19-17.94,5.19a34.25,34.25,0,0,1-18-4.77,32.61,32.61,0,0,1-12.41-13.74q-4.49-9-4.48-21.17t4.48-21a32.61,32.61,0,0,1,12.41-13.74,34.34,34.34,0,0,1,18-4.77Q192.07,30.84,199.49,36ZM169.42,51.66Q163,58.47,163,70.38t6.38,18.72q6.38,6.8,17,6.8a23.14,23.14,0,0,0,12-3.16,22.36,22.36,0,0,0,8.41-8.9A28,28,0,0,0,210,70.38,28.11,28.11,0,0,0,206.92,57a22.23,22.23,0,0,0-8.41-9,23.23,23.23,0,0,0-12-3.16Q175.8,44.86,169.42,51.66Z"/><path class="cls-2" d="M272.4,35a31.84,31.84,0,0,1,16.82-4.42V48h-4.77q-10.51,0-16.89,5.12T261.18,70v39.12h-16V31.83h16V47A29.79,29.79,0,0,1,272.4,35Z"/><path class="cls-2" d="M365.91,39.26Q374,47.94,374,64.07v45h-16V65.75q0-10.36-5.33-16T338.15,44q-9.54,0-15.28,6.1T317.12,68v41.08h-16V31.83h16v17a25.91,25.91,0,0,1,10.37-13.46,30,30,0,0,1,16.83-4.77Q357.78,30.56,365.91,39.26Z"/><path class="cls-2" d="M393.25,2.66A10.36,10.36,0,0,1,400.68,0a10.63,10.63,0,0,1,7.5,2.66,8.81,8.81,0,0,1,2.87,6.73A8.35,8.35,0,0,1,408.18,16a10.93,10.93,0,0,1-7.5,2.53A10.64,10.64,0,0,1,393.25,16a8.43,8.43,0,0,1-2.81-6.59A8.9,8.9,0,0,1,393.25,2.66Zm15.42,29.17v77.25h-16V31.83Z"/><path class="cls-2" d="M475.19,37.78q8.21,6.94,10,18.58H470.08a16.37,16.37,0,0,0-5.4-10.16q-4.43-3.86-11.71-3.86-6,0-9.32,2.87a9.82,9.82,0,0,0-3.3,7.79,7.69,7.69,0,0,0,2.39,5.88,16.44,16.44,0,0,0,6,3.51,100.72,100.72,0,0,0,10.16,2.8A102.24,102.24,0,0,1,473,69.26a22.77,22.77,0,0,1,9.25,6.66q3.85,4.56,3.86,12.41A19.32,19.32,0,0,1,478.7,104q-7.36,6-19.84,6-14.44,0-23.34-6.73T424.79,84.54h15.56A14.72,14.72,0,0,0,446,94.78q4.91,3.91,12.9,3.92,5.75,0,9-3a9.9,9.9,0,0,0,3.3-7.64,8.43,8.43,0,0,0-2.53-6.45,17.49,17.49,0,0,0-6.3-3.72A87.06,87.06,0,0,0,452,75.15a115,115,0,0,1-13.67-3.93,21.25,21.25,0,0,1-9-6.38q-3.72-4.41-3.72-12A19.71,19.71,0,0,1,433,36.94q7.36-6.09,20.4-6.1Q467,30.84,475.19,37.78Z"/><path class="cls-2" d="M566.81,39.26q8.13,8.68,8.14,24.81v45H559V65.75q0-10.36-5.32-16T539.05,44q-9.52,0-15.28,6.1T518,68v41.08H502V5.33h16V48.79A25.91,25.91,0,0,1,528.4,35.33a30,30,0,0,1,16.82-4.77Q558.69,30.56,566.81,39.26Z"/><path class="cls-1" d="M12.41,132.11v2.25H7.6v15H4.79v-15H0v-2.25Z"/><path class="cls-1" d="M28.41,132.11v17.25H25.6v-7.74H17.49v7.74H14.71V132.11h2.78v7.23H25.6v-7.23Z"/><path class="cls-1" d="M34.79,134.36v5.23h6.35v2.15H34.79v5.35h7.08v2.27H32V132.11h9.87v2.25Z"/><path class="cls-1" d="M53.4,132.11v10.24a5,5,0,0,0,1,3.42,4.14,4.14,0,0,0,5.66,0,5,5,0,0,0,1-3.42V132.11h2.78v10.24a7.24,7.24,0,0,1-1.83,5.36,6.57,6.57,0,0,1-4.84,1.82,6.48,6.48,0,0,1-4.79-1.82,7.31,7.31,0,0,1-1.8-5.36V132.11Z"/><path class="cls-1" d="M70.13,147.19h6v2.17H67.35V132.11h2.78Z"/><path class="cls-1" d="M89.58,132.11v2.25H84.77v15H82v-15H77.17v-2.25Z"/><path class="cls-1" d="M94.66,132.11v17.25H91.88V132.11Z"/><path class="cls-1" d="M116.13,132.38v17h-2.81V136.63l-4.91,12.73H106L101,136.63v12.73H98.25v-17h3.37l5.62,13.56,5.52-13.56Z"/><path class="cls-1" d="M130,145.62H122.7l-1.32,3.74h-3l6.36-17H128l6.32,17h-3Zm-.78-2.15-2.86-8.06-2.85,8.06Z"/><path class="cls-1" d="M147.67,132.11v2.25h-4.81v15h-2.81v-15h-4.79v-2.25Z"/><path class="cls-1" d="M152.75,134.36v5.23h6.35v2.15h-6.35v5.35h7.08v2.27H150V132.11h9.86v2.25Z"/><path class="cls-1" d="M181.72,133.48a7.08,7.08,0,0,1,2.71,4.13H181.5a4.64,4.64,0,0,0-1.84-2.22,5.43,5.43,0,0,0-3-.83,5.65,5.65,0,0,0-2.9.75,5.33,5.33,0,0,0-2,2.15,7.05,7.05,0,0,0-.72,3.28,7.25,7.25,0,0,0,.73,3.39,5,5,0,0,0,2.07,2.16,6.15,6.15,0,0,0,3.09.75,5.41,5.41,0,0,0,3.68-1.33,5.64,5.64,0,0,0,1.86-3.65H176.1V140h8.68v2.67a8.25,8.25,0,0,1-1.36,3.45,7.68,7.68,0,0,1-2.81,2.48,8.36,8.36,0,0,1-4,.93,8.68,8.68,0,0,1-4.45-1.12,7.66,7.66,0,0,1-3-3.12,10.41,10.41,0,0,1,0-9.11,7.58,7.58,0,0,1,3-3.1,8.7,8.7,0,0,1,4.43-1.11A8.41,8.41,0,0,1,181.72,133.48Z"/><path class="cls-1" d="M198.09,145.62h-7.28l-1.32,3.74h-3l6.35-17h3.2l6.33,17h-3Zm-.78-2.15-2.86-8.06-2.86,8.06Z"/><path class="cls-1" d="M213.75,149.36l-4.3-6.89h-2v6.89h-2.78V132.11h6.08a6.26,6.26,0,0,1,4.48,1.45,5,5,0,0,1,1.53,3.81,4.83,4.83,0,0,1-1.14,3.32,5.46,5.46,0,0,1-3.28,1.66l4.52,7Zm-6.28-8.87h3.08q3.38,0,3.37-3a2.93,2.93,0,0,0-.82-2.21,3.54,3.54,0,0,0-2.55-.79h-3.08Z"/><path class="cls-1" d="M233.46,149.36h-2.78l-8.38-12.73v12.73h-2.79V132.14h2.79l8.38,12.77V132.14h2.78Z"/><path class="cls-1" d="M239.84,132.11v17.25h-2.79V132.11Z"/><path class="cls-1" d="M254.15,147.13a4.4,4.4,0,0,1-1.85,1.74,6.47,6.47,0,0,1-3.06.66,7.73,7.73,0,0,1-3.15-.62,5.48,5.48,0,0,1-2.22-1.75,5,5,0,0,1-1-2.59h3a3.06,3.06,0,0,0,1,1.93,3.13,3.13,0,0,0,2.26.81,2.69,2.69,0,0,0,2-.69,2.35,2.35,0,0,0,.69-1.75,2.28,2.28,0,0,0-.51-1.53,3.63,3.63,0,0,0-1.27-.94,22,22,0,0,0-2.08-.78,19.11,19.11,0,0,1-2.62-1,4.82,4.82,0,0,1-1.73-1.49,4.28,4.28,0,0,1-.7-2.56,4.36,4.36,0,0,1,.68-2.45,4.47,4.47,0,0,1,1.95-1.62,7.14,7.14,0,0,1,2.94-.58,6.46,6.46,0,0,1,4.19,1.27,4.83,4.83,0,0,1,1.77,3.33h-3a3,3,0,0,0-.91-1.68,2.9,2.9,0,0,0-2-.69,2.79,2.79,0,0,0-1.88.6,2.1,2.1,0,0,0-.71,1.72,2.14,2.14,0,0,0,.49,1.45,3.35,3.35,0,0,0,1.23.91c.5.22,1.18.47,2,.76a18.7,18.7,0,0,1,2.67,1,4.77,4.77,0,0,1,1.76,1.53,4.43,4.43,0,0,1,.72,2.64A4.75,4.75,0,0,1,254.15,147.13Z"/><path class="cls-1" d="M271.47,132.11v17.25h-2.81v-7.74h-8.11v7.74h-2.78V132.11h2.78v7.23h8.11v-7.23Z"/><path class="cls-1" d="M291.19,132.11v2.25h-7.41v5.35h6.11v2.15h-6.11v7.5H281V132.11Z"/><path class="cls-1" d="M306.22,133a8,8,0,0,1,3.06,3.14,9.9,9.9,0,0,1,0,9.11,8.2,8.2,0,0,1-3.06,3.15,8.85,8.85,0,0,1-8.69,0,8.22,8.22,0,0,1-3.07-3.15,9.82,9.82,0,0,1,0-9.11,8.06,8.06,0,0,1,3.07-3.14,8.92,8.92,0,0,1,8.69,0Zm-7.29,2.22a5.3,5.3,0,0,0-2,2.17,7.92,7.92,0,0,0,0,6.6,5.18,5.18,0,0,0,2,2.17,5.7,5.7,0,0,0,3,.76,5.6,5.6,0,0,0,2.92-.76,5.14,5.14,0,0,0,2-2.17,7.92,7.92,0,0,0,0-6.6,5.26,5.26,0,0,0-2-2.17,5.7,5.7,0,0,0-2.92-.76A5.79,5.79,0,0,0,298.93,135.24Z"/><path class="cls-1" d="M322.48,149.36l-4.3-6.89h-2v6.89h-2.78V132.11h6.08a6.26,6.26,0,0,1,4.48,1.45,5,5,0,0,1,1.53,3.81,4.83,4.83,0,0,1-1.14,3.32,5.43,5.43,0,0,1-3.28,1.66l4.52,7Zm-6.28-8.87h3.08q3.38,0,3.37-3a2.93,2.93,0,0,0-.82-2.21,3.53,3.53,0,0,0-2.55-.79H316.2Z"/><path class="cls-1" d="M347.2,132.11l-5.74,11v6.28h-2.81v-6.28l-5.76-11h3.22l4,8,4-8Z"/><path class="cls-1" d="M361.82,133a8,8,0,0,1,3.06,3.14,9.9,9.9,0,0,1,0,9.11,8.2,8.2,0,0,1-3.06,3.15,8.85,8.85,0,0,1-8.69,0,8.22,8.22,0,0,1-3.07-3.15,9.82,9.82,0,0,1,0-9.11,8.06,8.06,0,0,1,3.07-3.14,8.92,8.92,0,0,1,8.69,0Zm-7.29,2.22a5.24,5.24,0,0,0-2,2.17,7.92,7.92,0,0,0,0,6.6,5.12,5.12,0,0,0,2,2.17,5.7,5.7,0,0,0,3,.76,5.54,5.54,0,0,0,2.91-.76,5.1,5.1,0,0,0,2-2.17,7.92,7.92,0,0,0,0-6.6,5.21,5.21,0,0,0-2-2.17,5.64,5.64,0,0,0-2.91-.76A5.79,5.79,0,0,0,354.53,135.24Z"/><path class="cls-1" d="M371.68,132.11v10.24a5,5,0,0,0,1,3.42,3.65,3.65,0,0,0,2.85,1.12,3.61,3.61,0,0,0,2.82-1.12,5,5,0,0,0,1-3.42V132.11h2.79v10.24a7.24,7.24,0,0,1-1.83,5.36,6.6,6.6,0,0,1-4.84,1.82,6.47,6.47,0,0,1-4.79-1.82,7.31,7.31,0,0,1-1.81-5.36V132.11Z"/><path class="cls-1" d="M394.69,149.36l-4.3-6.89h-2v6.89h-2.78V132.11h6.08a6.26,6.26,0,0,1,4.48,1.45,5,5,0,0,1,1.53,3.81,4.83,4.83,0,0,1-1.14,3.32,5.43,5.43,0,0,1-3.28,1.66l4.52,7Zm-6.28-8.87h3.08q3.38,0,3.37-3a2.93,2.93,0,0,0-.82-2.21,3.53,3.53,0,0,0-2.55-.79h-3.08Z"/><path class="cls-1" d="M409.18,132.11v17.25h-2.79V132.11Z"/><path class="cls-1" d="M423.49,147.13a4.43,4.43,0,0,1-1.86,1.74,6.43,6.43,0,0,1-3.05.66,7.73,7.73,0,0,1-3.15-.62,5.48,5.48,0,0,1-2.22-1.75,5,5,0,0,1-1-2.59h3a3.07,3.07,0,0,0,3.23,2.74,2.69,2.69,0,0,0,2-.69,2.35,2.35,0,0,0,.69-1.75,2.28,2.28,0,0,0-.51-1.53,3.63,3.63,0,0,0-1.27-.94,22,22,0,0,0-2.08-.78,19.11,19.11,0,0,1-2.62-1,4.82,4.82,0,0,1-1.73-1.49,4.28,4.28,0,0,1-.7-2.56,4.36,4.36,0,0,1,.68-2.45,4.41,4.41,0,0,1,1.95-1.62,7.12,7.12,0,0,1,2.93-.58,6.45,6.45,0,0,1,4.19,1.27,4.81,4.81,0,0,1,1.78,3.33h-3a3,3,0,0,0-.91-1.68,2.91,2.91,0,0,0-2.05-.69,2.83,2.83,0,0,0-1.88.6,2.13,2.13,0,0,0-.7,1.72,2.19,2.19,0,0,0,.48,1.45,3.48,3.48,0,0,0,1.24.91c.49.22,1.17.47,2,.76a18.7,18.7,0,0,1,2.67,1,4.85,4.85,0,0,1,1.76,1.53,4.43,4.43,0,0,1,.72,2.64A4.75,4.75,0,0,1,423.49,147.13Z"/><path class="cls-1" d="M438.2,132.11v2.25h-4.81v15h-2.81v-15h-4.79v-2.25Z"/><path class="cls-1" d="M450.78,145.62H443.5l-1.32,3.74h-3l6.35-17h3.2l6.33,17h-3Zm-.78-2.15-2.86-8.06-2.86,8.06Z"/><path class="cls-1" d="M470.39,133.48a7.14,7.14,0,0,1,2.72,4.13h-2.94a4.64,4.64,0,0,0-1.84-2.22,5.43,5.43,0,0,0-3-.83,5.65,5.65,0,0,0-2.9.75,5.33,5.33,0,0,0-2,2.15,7.05,7.05,0,0,0-.72,3.28,7.25,7.25,0,0,0,.73,3.39,5,5,0,0,0,2.07,2.16,6.15,6.15,0,0,0,3.09.75,5.45,5.45,0,0,0,3.69-1.33,5.67,5.67,0,0,0,1.85-3.65h-6.33V140h8.68v2.67a8.25,8.25,0,0,1-1.36,3.45,7.68,7.68,0,0,1-2.81,2.48,8.33,8.33,0,0,1-4,.93,8.68,8.68,0,0,1-4.45-1.12,7.72,7.72,0,0,1-3-3.12,10.41,10.41,0,0,1,0-9.11,7.58,7.58,0,0,1,3-3.1,8.7,8.7,0,0,1,4.43-1.11A8.37,8.37,0,0,1,470.39,133.48Z"/><path class="cls-1" d="M485.54,149.36l-4.3-6.89h-2v6.89h-2.78V132.11h6.08a6.26,6.26,0,0,1,4.48,1.45,5,5,0,0,1,1.53,3.81,4.83,4.83,0,0,1-1.14,3.32,5.43,5.43,0,0,1-3.28,1.66l4.52,7Zm-6.28-8.87h3.08q3.38,0,3.37-3a2.93,2.93,0,0,0-.82-2.21,3.53,3.53,0,0,0-2.55-.79h-3.08Z"/><path class="cls-1" d="M501.59,145.62h-7.28L493,149.36h-3l6.35-17h3.2l6.33,17h-3Zm-.78-2.15L498,135.41l-2.86,8.06Z"/><path class="cls-1" d="M526.07,132.38v17h-2.81V136.63l-4.91,12.73h-2.44L511,136.63v12.73h-2.79v-17h3.38l5.61,13.56,5.53-13.56Z"/><path class="cls-1" d="M538.35,142.67v6.69h-2.78V132.11h5.86a6.32,6.32,0,0,1,4.48,1.42,5.06,5.06,0,0,1,1.51,3.88,5,5,0,0,1-1.54,3.85,6.37,6.37,0,0,1-4.45,1.41Zm6.23-5.26a2.9,2.9,0,0,0-.82-2.23,3.75,3.75,0,0,0-2.62-.77h-2.79v6h2.79C543.44,140.39,544.58,139.4,544.58,137.41Z"/><path class="cls-1" d="M552.86,132.11v17.25h-2.78V132.11Z"/><path class="cls-1" d="M569.43,133.56a7.86,7.86,0,0,1,2.83,4.37h-3a5.2,5.2,0,0,0-1.94-2.48,5.59,5.59,0,0,0-3.26-.92,5.14,5.14,0,0,0-2.75.76,5.21,5.21,0,0,0-1.9,2.16,8,8,0,0,0,0,6.55,5.21,5.21,0,0,0,1.9,2.16,5.06,5.06,0,0,0,2.75.76,5.59,5.59,0,0,0,3.26-.92,5.22,5.22,0,0,0,1.94-2.45h3a7.83,7.83,0,0,1-2.83,4.36,8.5,8.5,0,0,1-5.28,1.6,8.32,8.32,0,0,1-4.32-1.11,7.53,7.53,0,0,1-2.91-3.11,10.59,10.59,0,0,1,0-9.11,7.53,7.53,0,0,1,2.91-3.11,8.24,8.24,0,0,1,4.32-1.13A8.39,8.39,0,0,1,569.43,133.56Z"/><path class="cls-1" d="M579.25,146.28v3.08h-3.18v-3.08Zm-.08-14.7L578.81,144h-2.35l-.36-12.38Z"/></g></g></svg>